# xmcd
#
# Track frame offsets: 
#        150
#        17462
#        37520
#        50562
#        71350
#        94825
#        107226
#        129564
#        168367
#        183011
#        199200
#
# Disc length: 2933 seconds
#
# Revision: 0
# Processed by: cddbd v1.5.2PL0 Copyright (c) Steve Scherf et al.
# Submitted via: ExactAudioCopy v0.99pb5
#
DISCID=850b730b
DTITLE=Mark Cloutier - Reconnect My Phone
DYEAR=2010
DGENRE=Blues
TTITLE0=Reconnect My Phone
TTITLE1=Flicker Of Light
TTITLE2=Shake A Leg
TTITLE3=Sweet Little Angel
TTITLE4=Where O Where (Live)
TTITLE5=There's A Place
TTITLE6=Manic Obession
TTITLE7=Catfish Blues (Live)
TTITLE8=Strat Guts
TTITLE9=Smokey Joe's
TTITLE10=Everything I Do Is Wrong
EXTD=
EXTT0=
EXTT1=
EXTT2=
EXTT3=
EXTT4=
EXTT5=
EXTT6=
EXTT7=
EXTT8=
EXTT9=
EXTT10=
PLAYORDER=
